<svg width="45" height="45" viewBox="0 0 45 45" fill="none" xmlns="http://www.w3.org/2000/svg">
<path d="M34.9433 15.2528H33.1837V13.5612C33.1837 11.199 32.2408 9.00194 30.5201 7.35904C28.8869 5.80363 26.7385 4.92871 24.4345 4.85094L24.7262 2.13869V2.06092C24.7262 1.76928 25.115 1.4582 25.4942 1.4582H31.5894V0H25.4942C24.3276 0 23.2971 0.933248 23.268 2.01231L22.9666 4.8315H20.7599C15.7437 4.8315 11.8163 8.6617 11.8163 13.5418V15.2333H10.0567C9.65813 15.2333 9.32761 15.5638 9.32761 15.9624V20.0745C9.32761 20.4731 9.65813 20.8036 10.0567 20.8036H11.8843L13.9355 41.5587C13.9355 41.5684 13.9355 41.5878 13.9452 41.5975C14.2466 43.5029 15.9284 45 17.7754 45H27.1079C29.1008 45 30.7826 43.4835 30.9478 41.5587L33.1157 20.8036H34.9433C35.3419 20.8036 35.6724 20.4731 35.6724 20.0745V15.9624C35.6724 15.5833 35.3419 15.2528 34.9433 15.2528ZM24.2693 6.30914C28.4592 6.38691 31.7255 9.54634 31.7255 13.5612V15.2528H23.3069L24.2693 6.30914ZM13.2745 13.5612C13.2745 9.48801 16.5603 6.30914 20.7599 6.30914H22.8111L21.8487 15.2528H13.2745V13.5612ZM29.4896 41.4323C29.4896 41.442 29.4896 41.442 29.4896 41.4517C29.3924 42.6377 28.3522 43.5612 27.1079 43.5612H17.7754C16.638 43.5612 15.5881 42.6183 15.384 41.4128L13.3522 20.8231H31.6478L29.4896 41.4323ZM34.2142 19.3649H10.7858V16.711H12.5454H32.4546H34.2142V19.3649Z" fill="black"/>
<path d="M16.8033 40.1685C16.813 40.1782 16.813 40.1879 16.813 40.1977C17.0075 41.1698 17.8338 41.8697 18.767 41.8697H21.0029C21.4112 41.8697 21.732 41.5489 21.732 41.1406C21.732 40.7421 21.4015 40.4115 21.0029 40.4115H18.767C18.4948 40.4115 18.3004 40.1685 18.2421 39.9158L17.6199 36.1828C17.5518 35.7842 17.1824 35.512 16.7839 35.58C16.3853 35.6481 16.1131 36.0175 16.1811 36.4161L16.8033 40.1685Z" fill="black"/>
</svg>
