<svg width="28" height="45" viewBox="0 0 28 45" fill="none" xmlns="http://www.w3.org/2000/svg">
<path d="M19.8183 27.0889C18.2166 27.0889 16.6814 27.5562 15.3756 28.385V24.8459C16.6814 25.6748 18.2166 26.1421 19.8183 26.1421C23.0467 26.1421 26.0059 24.2455 27.3573 21.3102C27.5556 20.8796 27.5556 20.3837 27.3573 19.953C26.006 17.0179 23.0467 15.1213 19.8183 15.1213C18.2166 15.1213 16.6814 15.5886 15.3756 16.4174V14.714C17.7666 13.2092 19.2633 10.5552 19.2633 7.68788C19.2633 4.45941 17.3668 1.50006 14.4316 0.148842C14.0008 -0.049614 13.505 -0.049614 13.0745 0.148842C10.1392 1.50015 8.24262 4.4595 8.24262 7.68788C8.24262 10.5552 9.73939 13.2092 12.1304 14.714V16.4174C10.8247 15.5885 9.28948 15.1213 7.68777 15.1213C4.4593 15.1213 1.49987 17.0179 0.148644 19.9531C-0.0495481 20.3836 -0.0495481 20.8795 0.148644 21.3101C1.50004 24.2455 4.4593 26.1421 7.68777 26.1421C9.28948 26.1421 10.8247 25.6748 12.1304 24.8459V28.385C10.8247 27.5561 9.28948 27.0889 7.68777 27.0889C4.4593 27.0889 1.49987 28.9855 0.148644 31.9208C-0.0495481 32.3512 -0.0495481 32.8471 0.148644 33.2778C1.49995 36.2131 4.4593 38.1096 7.68777 38.1096C9.28948 38.1096 10.8247 37.6423 12.1304 36.8135V43.3774C12.1304 44.2735 12.8569 45 13.7531 45C14.6492 45 15.3756 44.2735 15.3756 43.3774V36.8135C16.6814 37.6423 18.2166 38.1096 19.8183 38.1096C23.0467 38.1096 26.0061 36.2131 27.3573 33.2779C27.5556 32.8472 27.5556 32.3513 27.3573 31.9207C26.006 28.9855 23.0467 27.0889 19.8183 27.0889ZM19.8183 18.3664C21.5226 18.3664 23.1041 19.2351 24.0311 20.6315C23.104 22.028 21.5226 22.8968 19.8183 22.8968C18.1139 22.8968 16.5324 22.0281 15.6054 20.6315C16.5324 19.2351 18.1139 18.3664 19.8183 18.3664ZM7.68777 22.8969C5.98332 22.8969 4.40182 22.0284 3.47476 20.6317C4.40182 19.2353 5.98332 18.3666 7.68777 18.3666C9.39214 18.3666 10.9736 19.2353 11.9006 20.6317C10.9736 22.0284 9.39231 22.8969 7.68777 22.8969ZM7.68777 34.8644C5.98341 34.8644 4.40182 33.9958 3.47476 32.5993C4.40182 31.2028 5.98332 30.3342 7.68777 30.3342C9.39214 30.3342 10.9736 31.2028 11.9006 32.5993C10.9736 33.9958 9.39214 34.8644 7.68777 34.8644ZM13.7529 11.9009C12.3564 10.9738 11.4876 9.39242 11.4876 7.68805C11.4877 5.98378 12.3563 4.40228 13.7529 3.47522C15.1494 4.40228 16.018 5.98369 16.018 7.68805C16.018 9.39242 15.1495 10.9738 13.7529 11.9009ZM19.8183 34.8644C18.1139 34.8644 16.5324 33.9958 15.6054 32.5993C16.5325 31.2028 18.1139 30.3342 19.8183 30.3342C21.5226 30.3342 23.1041 31.2028 24.0311 32.5993C23.104 33.9958 21.5226 34.8644 19.8183 34.8644Z" fill="black"/>
</svg>
