<svg width="45" height="45" viewBox="0 0 45 45" fill="none" xmlns="http://www.w3.org/2000/svg">
<g clip-path="url(#clip0_11_2)">
<path d="M30.5151 5.75735L30.4336 5.78063C31.093 6.94885 32.2891 8.70274 34.2913 10.7041C36.2934 12.7062 38.0457 13.9024 39.1643 14.554L39.1984 14.5679C39.2085 14.5679 39.2326 14.5532 39.2457 14.5307C38.5864 13.3617 37.3895 11.6086 35.3881 9.60723C33.3868 7.60588 31.6337 6.40896 30.5151 5.75735Z" fill="black"/>
<path d="M38.6787 6.31586C34.8443 2.48227 30.5647 0.00463867 27.7745 0.00463867C26.8235 0.00463867 26.0625 0.282345 25.514 0.830775C24.39 1.95479 24.4203 4.00267 25.5994 6.59822C26.673 8.95949 28.5905 11.5868 30.9984 13.9947C34.8319 17.829 39.1123 20.3067 41.9026 20.3067C42.8536 20.3067 43.6146 20.0289 44.163 19.4805C46.6577 16.9858 43.1988 10.8367 38.6787 6.31586ZM40.5908 15.3033C40.3015 15.8067 39.7678 16.1193 39.1984 16.1193C38.9176 16.1193 38.6353 16.0418 38.3832 15.8952C37.1862 15.1978 35.3137 13.921 33.1944 11.8017C31.0751 9.68246 29.7991 7.80988 29.101 6.61295C28.807 6.10796 28.8015 5.50756 29.0885 5.00878C29.5206 4.25711 30.5321 3.9732 31.2962 4.41768C32.4939 5.11505 34.3665 6.39265 36.485 8.51113C38.6035 10.6296 39.8803 12.503 40.5777 13.6991C40.8724 14.2049 40.8779 14.8045 40.5908 15.3033Z" fill="black"/>
<path d="M24.1883 7.2405C23.515 5.75966 23.2241 4.53093 23.1628 3.51086C20.6092 6.75956 18.2169 10.9259 16.6918 14.8898C14.9007 19.5464 14.464 23.3816 15.3793 26.0268L10.4093 30.9968C8.75007 32.6552 6.49274 33.507 4.11982 33.3674C3.7467 33.3464 3.35807 33.3759 2.9772 33.4635C1.55764 33.7878 0.430524 34.9126 0.104723 36.329C-0.166777 37.5104 0.102396 38.7229 0.84398 39.653C1.42034 40.3775 2.21777 40.8615 3.10364 41.04C3.08347 41.8436 3.36273 42.8047 4.46967 43.8954C5.19109 44.6051 6.09092 44.9953 7.00471 44.9953L7.10167 44.9945C9.21007 44.9302 10.8608 43.2275 10.8608 41.0733C10.8321 38.5577 11.6753 36.3135 13.2337 34.7551L18.5419 29.4477C19.5224 29.8658 20.6844 30.083 22.0295 30.083C27.8714 30.083 36.0102 26.1509 41.479 21.8371C38.2784 21.6254 33.898 19.0857 29.9046 15.0915C27.3664 12.5557 25.3372 9.767 24.1883 7.2405ZM17.1604 28.6332L12.1353 33.659C10.279 35.5153 9.27523 38.1543 9.30781 41.1175C9.30781 42.3835 8.31722 43.4051 7.0528 43.4431L7.00316 43.4439C6.49972 43.4439 5.98542 43.2112 5.55645 42.7892C4.52242 41.7715 4.5868 41.1144 4.74117 40.528L5.00259 39.5343L3.97554 39.5545C3.92434 39.556 3.87392 39.5614 3.8778 39.5661C3.16492 39.5661 2.50091 39.2457 2.05642 38.6872C1.60418 38.1202 1.44826 37.4057 1.61582 36.6766C1.80664 35.8489 2.4916 35.1655 3.32161 34.9754C3.55821 34.9219 3.79868 34.9017 4.02363 34.9157C6.8356 35.0933 9.53121 34.0686 11.5062 32.0936L16.1093 27.4905C16.1248 27.5138 16.1457 27.5309 16.1612 27.5541C16.3373 27.8039 16.5258 28.0421 16.7392 28.2562C16.8703 28.388 17.0114 28.5137 17.1604 28.6332ZM29.8573 24.1961C27.4851 25.5319 24.6848 26.6039 22.4251 26.6039C21.2065 26.6047 20.1461 26.2928 19.3952 25.5412C18.6862 24.8322 18.3278 23.8082 18.3294 22.4988C18.3301 22.0698 18.6769 21.7239 19.1051 21.7239C19.5333 21.7247 19.8816 22.0722 19.8808 22.5011C19.88 23.3839 20.0848 24.0371 20.4921 24.4443C21.713 25.6661 25.2519 25.0083 29.0955 22.844C29.4702 22.633 29.9418 22.7657 30.152 23.1396C30.3623 23.5135 30.2304 23.9866 29.8573 24.1961ZM31.1341 19.5744C30.9844 19.7947 30.7408 19.9134 30.4926 19.9134C30.3421 19.9134 30.1893 19.8691 30.0559 19.7784C29.2522 19.2292 28.4602 18.5659 27.7016 17.8081C26.9429 17.0486 26.2804 16.2574 25.732 15.4553C25.4109 14.9852 24.8694 14.7339 24.2993 14.744C23.7198 14.7688 23.2071 15.0822 22.9255 15.5802C22.4337 16.4544 22.0086 17.3364 21.6626 18.1998C21.5036 18.597 21.0529 18.7901 20.6542 18.6319C20.2562 18.4729 20.0631 18.0214 20.2221 17.6227C20.5929 16.6965 21.0475 15.7532 21.5734 14.8192C22.1195 13.8504 23.1124 13.243 24.231 13.1941C25.3504 13.1437 26.3867 13.6634 27.0112 14.5803C27.5053 15.3033 28.1065 16.02 28.7969 16.7112C29.4873 17.4016 30.204 18.002 30.9285 18.4969C31.2846 18.7381 31.3753 19.2206 31.1341 19.5744Z" fill="black"/>
</g>
<defs>
<clipPath id="clip0_11_2">
<rect width="45" height="45" fill="white"/>
</clipPath>
</defs>
</svg>
