<svg width="45" height="45" viewBox="0 0 45 45" fill="none" xmlns="http://www.w3.org/2000/svg">
<g clip-path="url(#clip0_4_67)">
<path d="M37.439 18.4687C37.1765 16.2656 35.9671 14.2875 34.1297 13.05L29.0953 9.54378C29.0578 9.4594 29.0578 9.15943 29.0578 9.05625V7.45313C30.5109 7.23753 31.8703 6.27187 31.8703 4.65935V3.16872C31.8703 1.30315 30.0516 0 28.4109 0H16.5797C14.939 0 13.1203 1.30315 13.1203 3.16872V4.65935C13.1203 6.27187 14.4703 7.23744 15.9328 7.45313V9.06565C15.9422 9.225 15.9328 9.37503 15.9047 9.53438L10.7672 13.05C8.95782 14.25 7.79537 16.2468 7.55157 18.4875C7.52344 18.5719 7.50472 18.6563 7.49532 18.7501C7.50472 18.7969 7.51404 18.8438 7.52344 18.8907C7.51404 19.0594 7.49532 19.2188 7.49532 19.3875V38.8594C7.49532 42.2438 10.2328 44.9907 13.6172 45.0001H31.3828C34.7672 44.9907 37.5046 42.2438 37.5046 38.8594V18.7501C37.4953 18.6563 37.4672 18.5625 37.439 18.4687ZM14.9953 4.65935V3.16872C14.9953 2.53125 15.7922 1.87497 16.5797 1.87497H28.4203C29.1984 1.87497 30.0047 2.53125 30.0047 3.16872V4.65935C30.0047 5.31563 29.0672 5.625 28.4203 5.625H16.5797C15.9328 5.625 14.9953 5.31563 14.9953 4.65935ZM11.8078 14.5969L16.9547 11.0813C17.8079 10.5093 17.8079 9.5719 17.8079 9.06565V7.49997H27.1828V9.06557C27.1828 9.57182 27.1828 10.5093 28.0172 11.0718L33.0703 14.6062C34.2047 15.3656 35.0296 16.5 35.3952 17.8218H9.55784C9.88594 16.5 10.6828 15.3468 11.8078 14.5969ZM31.3734 43.125H13.6172C11.4515 43.125 9.67966 41.4844 9.42654 39.375H35.5734C35.3109 41.4844 33.5391 43.125 31.3734 43.125ZM35.6203 37.5H9.37029V19.6875H35.6203V37.5Z" fill="black"/>
<path d="M16.8703 31.875H18.7453V33.75C18.7453 34.2657 19.1672 34.6875 19.6828 34.6875H25.3078C25.8235 34.6875 26.2454 34.2657 26.2454 33.75V31.875H28.1203C28.636 31.875 29.0579 31.4532 29.0579 30.9375V26.25C29.0579 25.7344 28.636 25.3125 28.1203 25.3125H26.2454V23.4375C26.2454 22.9219 25.8235 22.5 25.3078 22.5H19.6828C19.1672 22.5 18.7453 22.9219 18.7453 23.4375V25.3125H16.8703C16.3547 25.3125 15.9328 25.7344 15.9328 26.25V30.9375C15.9328 31.4532 16.3547 31.875 16.8703 31.875ZM17.8078 27.1875H19.6828C20.1984 27.1875 20.6203 26.7656 20.6203 26.2499V24.375H24.3703V26.2499C24.3703 26.7656 24.7922 27.1875 25.3078 27.1875H27.1828V30H25.3078C24.7922 30 24.3703 30.4218 24.3703 30.9375V32.8125H20.6203V30.9375C20.6203 30.4218 20.1984 30 19.6828 30H17.8078V27.1875Z" fill="black"/>
</g>
<defs>
<clipPath id="clip0_4_67">
<rect width="45" height="45" fill="white"/>
</clipPath>
</defs>
</svg>
