<svg width="45" height="53" viewBox="0 0 45 53" fill="none" xmlns="http://www.w3.org/2000/svg">
<g clip-path="url(#clip0_4_47)" filter="url(#filter0_d_4_47)">
<path d="M28.9794 11.2223C28.0031 9.07851 27.0872 7.05547 27.0872 5.15321V4.76068C27.4294 4.69022 27.6911 4.38828 27.6911 4.02595V0.754865C27.6911 0.342205 27.3489 0 26.9363 0H16.2776C15.8649 0 15.5227 0.342205 15.5227 0.754865V4.02595C15.5227 4.38828 15.7844 4.69022 16.1266 4.76068V5.15321C16.1266 7.05547 15.2107 9.07851 14.2344 11.2223C13.1373 13.648 12 16.1541 12 18.8515V38.9611C12 40.4306 12.4026 41.6383 13.2078 42.5542C13.9023 43.6916 15.261 45 16.8815 45H26.3424C27.6207 45 29.1505 43.7721 30.0161 42.5542C30.781 41.5377 31.2239 40.2293 31.2239 38.9711V18.8616C31.2138 16.1541 30.0765 13.648 28.9794 11.2223ZM17.0324 1.50973H26.1814V3.27108H17.0324V1.50973ZM29.7041 38.9611C29.7041 39.8971 29.372 40.8734 28.7882 41.6383C28.7882 41.6484 28.7781 41.6484 28.7781 41.6585C28.0233 42.7253 26.8859 43.4802 26.3324 43.4802H16.8714C16.0662 43.4802 15.0698 42.7555 14.4558 41.7189C14.4256 41.6786 14.3954 41.6283 14.3652 41.5981C13.7915 40.964 13.4997 40.0783 13.4997 38.9611V34.9452H29.7041V38.9611ZM29.7041 33.4254H13.4997V21.6193H29.7041V33.4254ZM29.7041 20.1096H13.4997V18.8515C13.4997 16.4762 14.5665 14.121 15.6032 11.8463C16.65 9.55156 17.6263 7.37755 17.6263 5.15321V4.78081H25.5775V5.15321C25.5775 7.37755 26.5639 9.55156 27.6005 11.8463C28.6372 14.121 29.7041 16.4862 29.7041 18.8515V20.1096Z" fill="black"/>
<path d="M25.5473 13.97C25.8996 13.7486 26.0103 13.2856 25.7889 12.9334C25.5372 12.5308 24.8629 11.3934 24.6616 10.8298C24.42 10.0045 24.1584 8.21294 24.1584 8.19281C24.098 7.78015 23.7155 7.48827 23.3028 7.54866C22.8902 7.60905 22.5983 7.99151 22.6587 8.40417C22.6688 8.48469 22.9304 10.3568 23.2123 11.2827C23.2123 11.2928 23.2223 11.3029 23.2223 11.3129C23.5041 12.1181 24.3898 13.5574 24.4905 13.7184C24.6314 13.9499 24.883 14.0808 25.1346 14.0808C25.2655 14.0808 25.4064 14.0405 25.5473 13.97Z" fill="black"/>
<path d="M26.0304 16.5565C26.4751 16.5565 26.8356 16.196 26.8356 15.7513C26.8356 15.3066 26.4751 14.9461 26.0304 14.9461C25.5857 14.9461 25.2252 15.3066 25.2252 15.7513C25.2252 16.196 25.5857 16.5565 26.0304 16.5565Z" fill="black"/>
</g>
<defs>
<filter id="filter0_d_4_47" x="-4" y="0" width="53" height="53" filterUnits="userSpaceOnUse" color-interpolation-filters="sRGB">
<feFlood flood-opacity="0" result="BackgroundImageFix"/>
<feColorMatrix in="SourceAlpha" type="matrix" values="0 0 0 0 0 0 0 0 0 0 0 0 0 0 0 0 0 0 127 0" result="hardAlpha"/>
<feOffset dy="4"/>
<feGaussianBlur stdDeviation="2"/>
<feComposite in2="hardAlpha" operator="out"/>
<feColorMatrix type="matrix" values="0 0 0 0 0 0 0 0 0 0 0 0 0 0 0 0 0 0 0.25 0"/>
<feBlend mode="normal" in2="BackgroundImageFix" result="effect1_dropShadow_4_47"/>
<feBlend mode="normal" in="SourceGraphic" in2="effect1_dropShadow_4_47" result="shape"/>
</filter>
<clipPath id="clip0_4_47">
<rect width="45" height="45" fill="white"/>
</clipPath>
</defs>
</svg>
