<svg width="45" height="45" viewBox="0 0 45 45" fill="none" xmlns="http://www.w3.org/2000/svg">
<path d="M22.83 0C18.7647 0 14.9295 0.507958 12.0309 1.43043C7.87277 2.75354 7 4.48423 7 5.70315V39.2968C7 40.5157 7.87277 42.2465 12.0309 43.5696C14.9295 44.4919 18.7647 44.9999 22.83 44.9999C26.8953 44.9999 30.7305 44.4919 33.6291 43.5696C37.7871 42.2464 38.66 40.5157 38.66 39.2968V5.70315C38.6599 1.95899 30.6964 0 22.83 0ZM12.6231 3.29138C15.3353 2.42828 18.9603 1.95293 22.83 1.95293C26.6997 1.95293 30.3246 2.42828 33.0368 3.29138C35.5721 4.09813 36.707 5.08398 36.707 5.70315C36.707 6.32233 35.5721 7.30817 33.0368 8.11493C30.3246 8.97803 26.6997 9.45337 22.83 9.45337C18.9603 9.45337 15.3353 8.97803 12.6231 8.11493C10.0878 7.30817 8.95293 6.32233 8.95293 5.70315C8.95293 5.08398 10.0878 4.09813 12.6231 3.29138ZM33.0369 41.7086C30.3247 42.5717 26.6997 43.0471 22.83 43.0471C18.9603 43.0471 15.3353 42.5717 12.6231 41.7086C10.0878 40.9019 8.95293 39.916 8.95293 39.2968V14.4796C11.7957 16.3314 17.3361 17.2872 22.83 17.2872C26.8953 17.2872 30.7305 16.7792 33.6291 15.8568C34.9705 15.4299 35.9685 14.9606 36.7071 14.4797V39.2967C36.707 39.916 35.5721 40.9018 33.0369 41.7086ZM33.0368 13.9959C30.3247 14.859 26.6997 15.3343 22.83 15.3343C18.9603 15.3343 15.3353 14.859 12.6231 13.9959C10.0878 13.1891 8.95293 12.2033 8.95293 11.5841V8.59867C11.7957 10.4505 17.3361 11.4063 22.83 11.4063C26.8953 11.4063 30.7305 10.8983 33.6291 9.97588C34.9705 9.54897 35.9685 9.07968 36.7071 8.59877V11.584C36.707 12.2033 35.5721 13.189 33.0368 13.9959Z" fill="black"/>
<path d="M17.2247 24.5457C16.6909 24.4748 16.1988 24.8494 16.1273 25.3839C16.0558 25.9185 16.4309 26.4097 16.9655 26.4814C18.8228 26.7301 20.7958 26.8562 22.83 26.8562C24.8649 26.8562 26.8382 26.73 28.6953 26.4814C29.23 26.4098 29.6051 25.9185 29.5335 25.3839C29.462 24.8493 28.9702 24.4743 28.4362 24.5457C26.6646 24.783 24.7784 24.9033 22.83 24.9033C20.8821 24.9033 18.9962 24.783 17.2247 24.5457Z" fill="black"/>
<path d="M28.4361 28.4811C26.6645 28.7184 24.7783 28.8387 22.8299 28.8387C20.8821 28.8387 18.9962 28.7184 17.2247 28.4811C16.6909 28.4101 16.1988 28.7848 16.1273 29.3193C16.0558 29.8538 16.4309 30.3451 16.9655 30.4167C18.8228 30.6655 20.7958 30.7915 22.83 30.7915C24.8649 30.7915 26.8382 30.6654 28.6953 30.4167C29.23 30.3452 29.6051 29.8538 29.5335 29.3193C29.4619 28.7848 28.9702 28.4097 28.4361 28.4811Z" fill="black"/>
<path d="M32.8014 19.8617C32.5622 19.6768 32.2508 19.613 31.9585 19.689C29.4013 20.3532 26.1593 20.7191 22.8299 20.7191C19.5005 20.7191 16.2585 20.3532 13.7013 19.689C13.4093 19.613 13.0975 19.6768 12.8584 19.8617C12.6194 20.0467 12.4793 20.3319 12.4793 20.6341V36.0467C12.4793 36.4914 12.7799 36.88 13.2103 36.9918C15.9628 37.7067 19.2891 38.0845 22.8299 38.0845C26.3707 38.0845 29.697 37.7067 32.4495 36.9918C32.8799 36.88 33.1804 36.4914 33.1804 36.0467V20.6341C33.1804 20.3319 33.0404 20.0467 32.8014 19.8617ZM31.2275 35.2792C28.7972 35.8308 25.8495 36.1316 22.8299 36.1316C19.8103 36.1316 16.8626 35.8307 14.4323 35.2792V21.8667C16.9238 22.3951 19.7982 22.6721 22.8299 22.6721C25.8616 22.6721 28.736 22.3951 31.2275 21.8667V35.2792Z" fill="black"/>
</svg>
